<svg width="24" height="20" viewBox="0 0 24 20" fill="none" xmlns="http://www.w3.org/2000/svg">
<path d="M18.1813 18.1819C18.1813 18.684 18.3593 19.1123 18.7142 19.4671C19.069 19.8223 19.4977 20 20 20C20.5015 20 20.9302 19.8223 21.2851 19.4671C21.6402 19.1123 21.8179 18.684 21.8179 18.1819C21.8179 17.6798 21.6404 17.2514 21.2851 16.8962C20.9302 16.5414 20.5015 16.3637 20 16.3637C19.4977 16.3637 19.069 16.5414 18.7142 16.8962C18.3593 17.2514 18.1813 17.6798 18.1813 18.1819Z" fill="#1F1F1F"/>
<path d="M5.45422 18.1819C5.45422 18.684 5.63169 19.1123 5.98686 19.4671C6.34213 19.8223 6.77044 20 7.27248 20C7.77422 20 8.20278 19.8223 8.55781 19.4671C8.91298 19.1123 9.09064 18.684 9.09064 18.1819C9.09064 17.6798 8.91313 17.2514 8.55781 16.8962C8.20273 16.5414 7.77422 16.3637 7.27248 16.3637C6.77049 16.3637 6.34193 16.5414 5.98686 16.8962C5.63189 17.2514 5.45422 17.6798 5.45422 18.1819Z" fill="#1F1F1F"/>
<path d="M23.3661 2.08791C23.1861 1.90796 22.9731 1.81796 22.7269 1.81796H5.66756C5.65796 1.75174 5.63667 1.63109 5.60353 1.45592C5.5704 1.28065 5.54443 1.14104 5.52547 1.03677C5.50642 0.932935 5.47109 0.807363 5.41891 0.660597C5.36682 0.513731 5.30527 0.397612 5.23428 0.312587C5.16338 0.227114 5.06871 0.15393 4.9503 0.0921891C4.83199 0.0308458 4.69696 0 4.54552 0H0.909254C0.662885 0 0.449851 0.0901492 0.26995 0.269851C0.09 0.449751 0 0.662935 0 0.909105C0 1.15527 0.09 1.36836 0.26995 1.54826C0.45 1.72821 0.663085 1.81811 0.909254 1.81811H3.80662L6.32065 13.5085C6.30184 13.5463 6.20478 13.726 6.0295 14.0482C5.85433 14.3703 5.71468 14.6519 5.6106 14.8933C5.50647 15.1351 5.45438 15.322 5.45438 15.4545C5.45438 15.7006 5.54438 15.9138 5.72423 16.094C5.90438 16.2734 6.11736 16.3637 6.36358 16.3637H7.27264H19.9998H20.9083C21.1544 16.3637 21.3676 16.2734 21.5474 16.094C21.7275 15.9138 21.8174 15.7007 21.8174 15.4545C21.8174 15.2083 21.7275 14.9951 21.5474 14.8153C21.3676 14.6355 21.1545 14.5453 20.9083 14.5453H7.8406C8.06796 14.0906 8.18159 13.788 8.18159 13.6364C8.18159 13.5414 8.16975 13.4372 8.14602 13.3238C8.12229 13.2104 8.09393 13.0848 8.0608 12.9473C8.02761 12.8103 8.00642 12.7085 7.99696 12.6421L22.8267 10.9093C23.0631 10.8806 23.2574 10.7792 23.4089 10.6038C23.5604 10.4288 23.636 10.2276 23.636 10.0001V2.72736C23.6359 2.48119 23.5462 2.26811 23.3661 2.08791Z" fill="#1F1F1F"/>
</svg>
