<svg width="170" height="80" viewBox="0 0 170 80" fill="none" xmlns="http://www.w3.org/2000/svg">
<rect width="170" height="80" fill="white"/>
<rect y="15" width="50" height="50" rx="10" fill="#1F1F1F"/>
<path d="M76.2358 15.5884L81.0605 48H72.4321L72.0117 42.1743H68.9888L68.4883 48H59.7598L64.0439 15.5884H76.2358ZM71.7715 36.4287C71.3444 32.7585 70.9173 28.2274 70.4902 22.8354C69.6361 29.0282 69.1022 33.5592 68.8887 36.4287H71.7715ZM97.4565 29.6421C98.6844 30.0558 99.5986 30.7365 100.199 31.6841C100.8 32.6183 101.1 34.8205 101.1 38.2905C101.1 40.8664 100.806 42.8683 100.219 44.2964C99.632 45.7111 98.6177 46.7922 97.1763 47.5396C95.7349 48.2736 93.8864 48.6406 91.6309 48.6406C89.0684 48.6406 87.0531 48.2135 85.585 47.3594C84.1302 46.4919 83.1693 45.4375 82.7021 44.1963C82.2484 42.9417 82.0215 40.7729 82.0215 37.6899V35.1274H90.1094V40.3926C90.1094 41.7939 90.1895 42.6882 90.3496 43.0752C90.5231 43.4489 90.8968 43.6357 91.4707 43.6357C92.098 43.6357 92.5117 43.3955 92.7119 42.915C92.9121 42.4346 93.0122 41.18 93.0122 39.1514V36.9092C93.0122 35.668 92.8721 34.7604 92.5918 34.1865C92.3115 33.6126 91.8978 33.2389 91.3506 33.0654C90.8034 32.8786 89.7424 32.7718 88.1675 32.7451V28.0405C90.0894 28.0405 91.2772 27.9671 91.731 27.8203C92.1847 27.6735 92.5117 27.3532 92.7119 26.8594C92.9121 26.3656 93.0122 25.5915 93.0122 24.5371V22.7354C93.0122 21.6009 92.8921 20.8535 92.6519 20.4932C92.425 20.1328 92.0646 19.9526 91.5708 19.9526C91.0103 19.9526 90.6232 20.1462 90.4097 20.5332C90.2095 20.9069 90.1094 21.7144 90.1094 22.9556V25.6182H82.0215V22.8555C82.0215 19.7591 82.7288 17.6704 84.1436 16.5894C85.5583 15.495 87.8071 14.9478 90.8901 14.9478C94.7472 14.9478 97.3631 15.7018 98.7378 17.21C100.112 18.7181 100.8 20.8135 100.8 23.4961C100.8 25.3112 100.553 26.6258 100.059 27.4399C99.5653 28.2407 98.6978 28.9748 97.4565 29.6421ZM123.422 24.1968H115.334C115.334 22.6886 115.314 21.741 115.274 21.354C115.247 20.9536 115.087 20.62 114.793 20.353C114.513 20.0861 114.126 19.9526 113.632 19.9526C113.219 19.9526 112.878 20.0794 112.611 20.333C112.344 20.5866 112.191 20.9136 112.151 21.314C112.111 21.7144 112.091 22.5218 112.091 23.7363V28.9014C112.505 28.0339 113.112 27.3866 113.913 26.9595C114.713 26.519 115.701 26.2988 116.875 26.2988C118.357 26.2988 119.665 26.6992 120.799 27.5C121.934 28.3008 122.654 29.2617 122.961 30.3828C123.268 31.5039 123.422 33.0187 123.422 34.9272V37.5098C123.422 39.7786 123.335 41.467 123.162 42.5747C122.988 43.6825 122.521 44.7101 121.76 45.6577C121.013 46.592 119.979 47.3193 118.657 47.8398C117.349 48.3604 115.821 48.6206 114.073 48.6206C111.897 48.6206 110.116 48.3203 108.728 47.7197C107.34 47.1191 106.265 46.2583 105.504 45.1372C104.757 44.0028 104.317 42.8149 104.183 41.5737C104.063 40.3325 104.003 37.9235 104.003 34.3467V29.8623C104.003 26.0052 104.056 23.4294 104.163 22.1348C104.283 20.8268 104.75 19.5923 105.564 18.4312C106.379 17.27 107.486 16.4025 108.888 15.8286C110.302 15.2414 111.931 14.9478 113.772 14.9478C116.041 14.9478 117.903 15.3148 119.358 16.0488C120.813 16.7829 121.854 17.8172 122.481 19.1519C123.108 20.4865 123.422 22.1681 123.422 24.1968ZM115.334 34.3066C115.334 33.1589 115.207 32.3714 114.954 31.9443C114.7 31.5173 114.286 31.3037 113.712 31.3037C113.152 31.3037 112.738 31.5106 112.471 31.9243C112.218 32.3247 112.091 33.1188 112.091 34.3066V40.1724C112.091 41.6004 112.211 42.5347 112.451 42.9751C112.705 43.4155 113.118 43.6357 113.692 43.6357C114.039 43.6357 114.4 43.4689 114.773 43.1353C115.147 42.7882 115.334 41.8674 115.334 40.3726V34.3066ZM141.419 29.6421C142.647 30.0558 143.562 30.7365 144.162 31.6841C144.763 32.6183 145.063 34.8205 145.063 38.2905C145.063 40.8664 144.769 42.8683 144.182 44.2964C143.595 45.7111 142.581 46.7922 141.139 47.5396C139.698 48.2736 137.849 48.6406 135.594 48.6406C133.031 48.6406 131.016 48.2135 129.548 47.3594C128.093 46.4919 127.132 45.4375 126.665 44.1963C126.211 42.9417 125.984 40.7729 125.984 37.6899V35.1274H134.072V40.3926C134.072 41.7939 134.152 42.6882 134.312 43.0752C134.486 43.4489 134.86 43.6357 135.434 43.6357C136.061 43.6357 136.475 43.3955 136.675 42.915C136.875 42.4346 136.975 41.18 136.975 39.1514V36.9092C136.975 35.668 136.835 34.7604 136.555 34.1865C136.274 33.6126 135.861 33.2389 135.313 33.0654C134.766 32.8786 133.705 32.7718 132.13 32.7451V28.0405C134.052 28.0405 135.24 27.9671 135.694 27.8203C136.148 27.6735 136.475 27.3532 136.675 26.8594C136.875 26.3656 136.975 25.5915 136.975 24.5371V22.7354C136.975 21.6009 136.855 20.8535 136.615 20.4932C136.388 20.1328 136.028 19.9526 135.534 19.9526C134.973 19.9526 134.586 20.1462 134.373 20.5332C134.172 20.9069 134.072 21.7144 134.072 22.9556V25.6182H125.984V22.8555C125.984 19.7591 126.692 17.6704 128.106 16.5894C129.521 15.495 131.77 14.9478 134.853 14.9478C138.71 14.9478 141.326 15.7018 142.701 17.21C144.075 18.7181 144.763 20.8135 144.763 23.4961C144.763 25.3112 144.516 26.6258 144.022 27.4399C143.528 28.2407 142.661 28.9748 141.419 29.6421Z" fill="#1F1F1F"/>
<path d="M65.1479 54.7231L66.6777 65H63.9419L63.8086 63.1528H62.8501L62.6914 65H59.9238L61.2822 54.7231H65.1479ZM63.7324 61.3311C63.597 60.1673 63.4616 58.7306 63.3262 57.021C63.0553 58.9845 62.8861 60.4212 62.8184 61.3311H63.7324ZM72.2299 56.7734H70.2685V65H67.5898V54.7168H72.2299V56.7734ZM73.4022 54.7231H76.0936C76.8215 54.7231 77.3801 54.7803 77.7694 54.8945C78.1629 55.0088 78.457 55.1738 78.6517 55.3896C78.8506 55.6055 78.9839 55.8678 79.0516 56.1768C79.1235 56.4814 79.1595 56.9554 79.1595 57.5986V58.4937C79.1595 59.1496 79.0918 59.6278 78.9564 59.9282C78.821 60.2287 78.5713 60.4593 78.2074 60.6201C77.8477 60.7809 77.3758 60.8613 76.7918 60.8613H76.0746V65H73.4022V54.7231ZM76.0746 56.4814V59.0967C76.1507 59.1009 76.2163 59.103 76.2713 59.103C76.5168 59.103 76.686 59.0438 76.7791 58.9253C76.8765 58.8026 76.9251 58.5508 76.9251 58.1699V57.3257C76.9251 56.9744 76.8701 56.7459 76.7601 56.6401C76.6501 56.5343 76.4216 56.4814 76.0746 56.4814ZM86.489 60.7407C86.489 61.7733 86.4636 62.5054 86.4129 62.937C86.3663 63.3644 86.214 63.7559 85.9558 64.1113C85.7019 64.4668 85.357 64.7397 84.9212 64.9302C84.4853 65.1206 83.9775 65.2158 83.3977 65.2158C82.8476 65.2158 82.3525 65.127 81.9124 64.9492C81.4765 64.7673 81.1253 64.4964 80.8587 64.1367C80.5921 63.777 80.4334 63.3856 80.3826 62.9624C80.3318 62.5392 80.3064 61.7987 80.3064 60.7407V58.9824C80.3064 57.9499 80.3297 57.2199 80.3762 56.7925C80.427 56.3608 80.5794 55.9673 80.8333 55.6118C81.0914 55.2563 81.4384 54.9834 81.8743 54.793C82.3101 54.6025 82.818 54.5073 83.3977 54.5073C83.9478 54.5073 84.4408 54.5983 84.8767 54.7803C85.3168 54.958 85.6702 55.2267 85.9368 55.5864C86.2034 55.9461 86.3621 56.3376 86.4129 56.7607C86.4636 57.1839 86.489 57.9245 86.489 58.9824V60.7407ZM83.8167 57.3638C83.8167 56.8856 83.7892 56.5809 83.7341 56.4497C83.6834 56.3143 83.5754 56.2466 83.4104 56.2466C83.2708 56.2466 83.1629 56.3016 83.0867 56.4116C83.0147 56.5174 82.9788 56.8348 82.9788 57.3638V62.1626C82.9788 62.7593 83.002 63.1274 83.0486 63.2671C83.0994 63.4067 83.2136 63.4766 83.3914 63.4766C83.5733 63.4766 83.6897 63.3962 83.7405 63.2354C83.7913 63.0745 83.8167 62.6916 83.8167 62.0864V57.3638ZM92.6887 59.1792C93.078 59.3104 93.3679 59.5262 93.5583 59.8267C93.7487 60.1229 93.8439 60.8211 93.8439 61.9214C93.8439 62.7381 93.7508 63.3729 93.5646 63.8257C93.3784 64.2743 93.0568 64.617 92.5998 64.854C92.1428 65.0868 91.5567 65.2031 90.8415 65.2031C90.029 65.2031 89.39 65.0677 88.9245 64.7969C88.4632 64.5218 88.1585 64.1875 88.0104 63.7939C87.8665 63.3962 87.7946 62.7085 87.7946 61.731V60.9185H90.3591V62.5879C90.3591 63.0322 90.3845 63.3158 90.4352 63.4385C90.4902 63.557 90.6087 63.6162 90.7907 63.6162C90.9896 63.6162 91.1208 63.54 91.1843 63.3877C91.2477 63.2354 91.2795 62.8376 91.2795 62.1943V61.4834C91.2795 61.0898 91.235 60.8021 91.1462 60.6201C91.0573 60.4382 90.9261 60.3197 90.7526 60.2646C90.5791 60.2054 90.2427 60.1715 89.7433 60.1631V58.6714C90.3527 58.6714 90.7293 58.6481 90.8732 58.6016C91.0171 58.555 91.1208 58.4535 91.1843 58.2969C91.2477 58.1403 91.2795 57.8949 91.2795 57.5605V56.9893C91.2795 56.6296 91.2414 56.3926 91.1652 56.2783C91.0933 56.1641 90.979 56.1069 90.8224 56.1069C90.6447 56.1069 90.522 56.1683 90.4543 56.291C90.3908 56.4095 90.3591 56.6655 90.3591 57.0591V57.9033H87.7946V57.0273C87.7946 56.0456 88.0189 55.3833 88.4675 55.0405C88.916 54.6935 89.6291 54.52 90.6066 54.52C91.8296 54.52 92.659 54.7591 93.0949 55.2373C93.5308 55.7155 93.7487 56.3799 93.7487 57.2305C93.7487 57.806 93.6704 58.2228 93.5138 58.481C93.3573 58.7349 93.0822 58.9676 92.6887 59.1792ZM99.9103 54.7231L101.44 65H98.7042L98.5709 63.1528H97.6124L97.4537 65H94.6861L96.0445 54.7231H99.9103ZM98.4947 61.3311C98.3593 60.1673 98.2239 58.7306 98.0885 57.021C97.8176 58.9845 97.6484 60.4212 97.5807 61.3311H98.4947ZM108.503 65H105.824V56.7734H105.031V65H102.352V54.7168H108.503V65ZM113.681 61.0581C113.465 61.2866 113.183 61.4707 112.836 61.6104C112.489 61.7458 112.138 61.8135 111.783 61.8135C111.144 61.8135 110.678 61.6357 110.386 61.2803C110.098 60.9248 109.955 60.3747 109.955 59.6299V54.7168H112.633V59.3442C112.633 59.7463 112.667 60.0234 112.735 60.1758C112.807 60.3239 112.923 60.3979 113.084 60.3979C113.482 60.3979 113.681 60.0552 113.681 59.3696V54.7168H116.359V65H113.681V61.0581ZM122.502 54.7231L124.032 65H121.296L121.162 63.1528H120.204L120.045 65H117.278L118.636 54.7231H122.502ZM121.086 61.3311C120.951 60.1673 120.815 58.7306 120.68 57.021C120.409 58.9845 120.24 60.4212 120.172 61.3311H121.086ZM131.183 59.2046H128.511V57.4146C128.511 56.894 128.481 56.5703 128.422 56.4434C128.367 56.3122 128.242 56.2466 128.048 56.2466C127.828 56.2466 127.688 56.3249 127.629 56.4814C127.569 56.638 127.54 56.9766 127.54 57.4971V62.2705C127.54 62.7699 127.569 63.0957 127.629 63.248C127.688 63.4004 127.821 63.4766 128.029 63.4766C128.227 63.4766 128.357 63.4004 128.416 63.248C128.479 63.0957 128.511 62.7381 128.511 62.1753V60.8867H131.183V61.2866C131.183 62.3488 131.107 63.1021 130.955 63.5464C130.807 63.9907 130.475 64.38 129.958 64.7144C129.446 65.0487 128.814 65.2158 128.06 65.2158C127.277 65.2158 126.632 65.0741 126.124 64.7905C125.616 64.507 125.28 64.1156 125.115 63.6162C124.95 63.1126 124.867 62.3573 124.867 61.3501V58.3477C124.867 57.6071 124.893 57.0527 124.944 56.6846C124.994 56.3122 125.145 55.9546 125.394 55.6118C125.648 55.269 125.997 55.0003 126.442 54.8057C126.89 54.6068 127.404 54.5073 127.984 54.5073C128.771 54.5073 129.421 54.6597 129.933 54.9644C130.445 55.269 130.781 55.6499 130.942 56.1069C131.103 56.5597 131.183 57.2664 131.183 58.2271V59.2046ZM137.98 54.7231V56.7798H136.393V65H133.72V56.7798H132.14V54.7231H137.98ZM145.271 62.5942C145.271 63.3602 145.172 63.9103 144.973 64.2446C144.774 64.5789 144.471 64.7884 144.065 64.873C143.663 64.9577 143.02 65 142.135 65H139.044V54.7168H141.723V58.2397H142.135C142.961 58.2397 143.585 58.2884 144.008 58.3857C144.431 58.4831 144.746 58.6989 144.954 59.0332C145.165 59.3633 145.271 59.8838 145.271 60.5947V62.5942ZM142.592 62.2832V60.7979C142.592 60.3662 142.548 60.1038 142.459 60.0107C142.374 59.9176 142.129 59.8647 141.723 59.8521V63.229C142.061 63.229 142.29 63.1867 142.408 63.1021C142.531 63.0132 142.592 62.7402 142.592 62.2832Z" fill="#1F1F1F"/>
<line x1="60" y1="51.5" x2="145" y2="51.5" stroke="#1F1F1F"/>
<path d="M13.4038 55.3889C13.4038 55.6794 13.6395 55.9149 13.9298 55.9149H17.2189C17.5095 55.9149 17.7449 55.6794 17.7449 55.3889V54.369C18.4366 54.1828 19.0978 53.9087 19.7192 53.5507L20.4392 54.2708C20.5378 54.3694 20.6716 54.4249 20.8113 54.4249C20.9506 54.4249 21.0846 54.3694 21.1832 54.2705L23.508 51.9439C23.7133 51.7384 23.7133 51.4053 23.508 51.2L22.7888 50.4808C23.1468 49.8594 23.4209 49.1981 23.607 48.5064H24.6229C24.9135 48.5064 25.1489 48.2709 25.1489 47.9803V44.6909C25.1489 44.4004 24.9135 44.1649 24.6229 44.1649H23.6068C23.4207 43.4734 23.1468 42.8121 22.7888 42.1907L23.5041 41.4753C23.6027 41.3767 23.6582 41.2427 23.6582 41.1032C23.658 40.9637 23.6025 40.8297 23.5039 40.731L21.1772 38.4061C20.972 38.2008 20.6389 38.2008 20.4334 38.4063L19.7192 39.1208C19.0978 38.7628 18.4366 38.4887 17.7449 38.3025V37.2921C17.7449 37.0015 17.5095 36.766 17.2189 36.766H13.9298C13.6395 36.766 13.4038 37.0015 13.4038 37.2921V38.3027C12.7124 38.4887 12.0511 38.7628 11.4298 39.1208L10.7153 38.4063C10.51 38.201 10.177 38.2008 9.97149 38.4061L7.64506 40.7312C7.54623 40.8299 7.49075 40.9637 7.49075 41.1032C7.49075 41.2427 7.54623 41.3767 7.64485 41.4753L8.36012 42.1907C8.00218 42.8121 7.72807 43.4732 7.54191 44.1649H6.52787C6.23733 44.1649 6.00185 44.4004 6.00185 44.6907L6 47.9801C5.9998 48.1196 6.05527 48.2536 6.1539 48.3523C6.25253 48.4509 6.3863 48.5064 6.52603 48.5064H7.54191C7.72807 49.1981 8.00218 49.8594 8.36012 50.4808L7.64095 51.2C7.43568 51.4053 7.43547 51.7384 7.64095 51.9439L9.96573 54.2705C10.0644 54.3692 10.1981 54.4249 10.3376 54.4249H10.3379C10.4774 54.4249 10.6111 54.3694 10.7098 54.2708L11.4296 53.5507C12.0511 53.9087 12.7124 54.1828 13.4038 54.369V55.3889ZM11.6359 52.4443C11.4277 52.3097 11.1538 52.3389 10.9783 52.5142L10.3379 53.1547L8.7567 51.5722L9.39656 50.9321C9.57183 50.7568 9.60101 50.4828 9.46642 50.2747C8.9895 49.5365 8.65416 48.7275 8.47006 47.8698C8.41786 47.6275 8.20376 47.4542 7.95574 47.4542H7.05226L7.05349 45.217H7.95574C8.20376 45.217 8.41786 45.044 8.47006 44.8015C8.65416 43.944 8.9895 43.1349 9.46642 42.3968C9.60101 42.1886 9.57183 41.9147 9.39656 41.7394L8.76081 41.1034L10.3432 39.5221L10.9783 40.1575C11.1538 40.3328 11.4275 40.3618 11.6359 40.2274C12.3737 39.7504 13.1827 39.415 14.0404 39.2309C14.2826 39.1787 14.4558 38.9644 14.4558 38.7166V37.8181H16.6929V38.7164C16.6929 38.9644 16.8659 39.1787 17.1084 39.2307C17.9658 39.415 18.775 39.7502 19.5129 40.2272C19.721 40.3618 19.9949 40.3328 20.1702 40.1573L20.8055 39.5221L22.3879 41.1034L21.7522 41.7392C21.5767 41.9147 21.5477 42.1886 21.6823 42.3968C22.1592 43.1349 22.4944 43.944 22.6787 44.8015C22.7307 45.044 22.945 45.217 23.193 45.217H24.0969V47.4542H23.193C22.945 47.4542 22.7309 47.6275 22.6787 47.8698C22.4946 48.7273 22.1592 49.5365 21.6823 50.2745C21.5477 50.4828 21.5769 50.7568 21.7522 50.9321L22.392 51.572L20.8109 53.1545L20.1704 52.5142C19.9949 52.3387 19.721 52.3097 19.5129 52.4443C18.7748 52.9213 17.9658 53.2564 17.1084 53.4408C16.8659 53.493 16.6929 53.7071 16.6929 53.9551V54.8628H14.4558V53.9551C14.4558 53.7073 14.2826 53.493 14.0404 53.4408C13.1829 53.2566 12.3739 52.9213 11.6359 52.4443Z" fill="white"/>
<path d="M19.83 46.3405C19.83 43.994 17.9211 42.0851 15.5747 42.0851C13.2282 42.0851 11.3193 43.994 11.3193 46.3405C11.3193 48.6869 13.2282 50.5958 15.5747 50.5958C17.9211 50.5958 19.83 48.6869 19.83 46.3405ZM12.3493 46.3405C12.3493 44.5619 13.7961 43.1151 15.5747 43.1151C17.3532 43.1151 18.8 44.5621 18.8 46.3405C18.8 48.1188 17.3532 49.5658 15.5747 49.5658C13.7961 49.5658 12.3493 48.119 12.3493 46.3405Z" fill="white"/>
<path d="M42.6271 43.9833V39.9574C42.6271 37.4433 40.582 35.3982 38.0678 35.3982H35.7882V29.6991C35.7882 29.0707 36.2996 28.5593 36.928 28.5593V26.2796C35.0426 26.2796 33.5086 27.8136 33.5086 29.6991V35.3982H28.5055L25.77 26.2796H27.6575V24H9.42042V26.2796H11.7001V33.5546C9.77394 34.0527 7.96359 34.9663 6.41504 36.2453L7.86653 38.0031C9.90069 36.3234 12.4766 35.3982 15.1195 35.3982C21.4045 35.3982 26.5177 40.5113 26.5177 46.7963V50.2158H31.3245C31.8689 53.4462 34.6852 55.9149 38.0678 55.9149C41.8387 55.9149 44.9067 52.8469 44.9067 49.076C44.9067 47.0552 44.0255 45.2365 42.6271 43.9833ZM13.9797 33.1669V26.2796H23.39L26.1256 35.3982H22.6714C20.5057 33.9586 17.9091 33.1185 15.1195 33.1185C14.7381 33.1185 14.3578 33.1352 13.9797 33.1669ZM25.3048 37.6778H38.0678C39.3249 37.6778 40.3475 38.7004 40.3475 39.9574V42.6283C39.6342 42.3754 38.8669 42.2371 38.0678 42.2371H28.0149C27.4126 40.5389 26.4844 38.9939 25.3048 37.6778ZM28.6062 44.5167H32.9752C32.1307 45.4588 31.5436 46.6358 31.3245 47.9362H28.7973V46.7963C28.7973 46.0198 28.7314 45.2585 28.6062 44.5167ZM38.0678 53.6353C35.5537 53.6353 33.5086 51.5901 33.5086 49.076C33.5086 46.5619 35.5537 44.5167 38.0678 44.5167C40.582 44.5167 42.6271 46.5619 42.6271 49.076C42.6271 51.5901 40.582 53.6353 38.0678 53.6353Z" fill="white"/>
<path d="M39.2064 49.076C39.2064 49.7056 38.6961 50.2158 38.0666 50.2158C37.437 50.2158 36.9268 49.7056 36.9268 49.076C36.9268 48.4464 37.437 47.9362 38.0666 47.9362C38.6961 47.9362 39.2064 48.4464 39.2064 49.076Z" fill="white"/>
</svg>
