<svg width="22" height="15" viewBox="0 0 22 15" fill="none" xmlns="http://www.w3.org/2000/svg">
<path d="M21.1454 1.07172L14.6754 7.50001L21.1454 13.9283C21.2623 13.6838 21.3333 13.4136 21.3333 13.125V1.87501C21.3333 1.58638 21.2623 1.31617 21.1454 1.07172Z" fill="white"/>
<path d="M19.4583 0H1.87495C1.58632 0 1.31611 0.0709584 1.07166 0.187917L9.34095 8.41554C10.0721 9.14671 11.2611 9.14671 11.9923 8.41554L20.2616 0.187917C20.0171 0.0709584 19.7469 0 19.4583 0Z" fill="white"/>
<path d="M0.187917 1.07172C0.0709584 1.31617 0 1.58638 0 1.87501V13.125C0 13.4136 0.0709584 13.6839 0.187917 13.9283L6.65788 7.50001L0.187917 1.07172Z" fill="white"/>
<path d="M13.7916 8.38379L12.8761 9.29933C11.6578 10.5176 9.67541 10.5176 8.45711 9.29933L7.54161 8.38379L1.07166 14.8121C1.31611 14.929 1.58632 15 1.87495 15H19.4583C19.7469 15 20.0171 14.929 20.2616 14.8121L13.7916 8.38379Z" fill="white"/>
</svg>
