<svg width="20" height="19" viewBox="0 0 20 19" fill="none" xmlns="http://www.w3.org/2000/svg">
<path d="M19.14 14.1943L17.7406 11.7949C17.6691 11.6725 17.5373 11.5969 17.3949 11.5969H14.5961C14.4538 11.5969 14.322 11.6725 14.2505 11.7949L12.8511 14.1943C12.7785 14.319 12.7785 14.4731 12.8511 14.5973L14.2505 16.9967C14.322 17.1197 14.4538 17.1952 14.5961 17.1952H17.3949C17.5373 17.1952 17.6691 17.1197 17.7406 16.9967L19.14 14.5973C19.2126 14.4731 19.2126 14.319 19.14 14.1943ZM17.1653 16.3956H14.8258L13.6595 14.3958L14.8258 12.3965H17.1653L18.3316 14.3958L17.1653 16.3956Z" fill="#EE6666"/>
<path d="M15.9955 12.7714C15.1133 12.7714 14.3958 13.489 14.3958 14.3712C14.3958 15.2534 15.1133 15.9704 15.9955 15.9704C16.8777 15.9704 17.5953 15.2534 17.5953 14.3712C17.5953 13.489 16.8777 12.7714 15.9955 12.7714ZM15.9955 15.1708C15.5544 15.1708 15.1959 14.8123 15.1959 14.3712C15.1959 13.9301 15.5544 13.571 15.9955 13.571C16.4366 13.571 16.7951 13.9301 16.7951 14.3712C16.7951 14.8123 16.4366 15.1708 15.9955 15.1708Z" fill="#EE6666"/>
<path d="M5.4527 7.39959C5.52475 7.5223 5.65597 7.59788 5.79832 7.59788H8.59773C8.73948 7.59788 8.8713 7.5223 8.94275 7.39959L10.3428 5.00023C10.4154 4.87577 10.4154 4.72168 10.3428 4.59722L8.94275 2.19786C8.8713 2.07515 8.73948 1.99957 8.59773 1.99957H5.79832C5.65597 1.99957 5.52475 2.07515 5.4527 2.19786L4.05327 4.59722C3.98062 4.72168 3.98062 4.87577 4.05327 5.00023L5.4527 7.39959ZM6.02791 2.7992H8.36811L9.53438 4.79872L8.36811 6.79825H6.02791L4.86167 4.79872L6.02791 2.7992Z" fill="#EE6666"/>
<path d="M7.19752 6.37356C8.0797 6.37356 8.7973 5.656 8.7973 4.77383C8.7973 3.89195 8.0797 3.17435 7.19752 3.17435C6.31591 3.17435 5.59839 3.89191 5.59839 4.77383C5.59839 5.656 6.31591 6.37356 7.19752 6.37356ZM7.19752 3.97424C7.63863 3.97424 7.99771 4.33272 7.99771 4.77383C7.99771 5.21493 7.63863 5.57371 7.19752 5.57371C6.75702 5.57371 6.39794 5.21493 6.39794 4.77383C6.39794 4.33272 6.75702 3.97424 7.19752 3.97424Z" fill="#EE6666"/>
<path d="M13.3436 10.7176L14.5316 8.6338V8.6335L15.7201 6.54931L16.7106 4.81248L17.4054 5.20845C17.468 5.24418 17.536 5.26116 17.6028 5.26116C17.7422 5.26116 17.8769 5.1885 17.9507 5.05905L19.1393 2.97487C19.192 2.88261 19.2055 2.77336 19.1774 2.67113C19.1492 2.56889 19.0819 2.48191 18.9899 2.4292L14.8209 0.052489C14.6294 -0.0567568 14.3851 0.0100128 14.2755 0.201849L13.087 2.28633C13.0349 2.37829 13.0208 2.48754 13.049 2.58977C13.0771 2.69227 13.1444 2.77929 13.2364 2.8317L13.9311 3.22797L13.5351 3.92269L11.7526 7.04898C11.7526 7.04928 11.7526 7.04928 11.7526 7.04928L9.97009 10.1753V10.1759L9.37553 11.2179C9.26659 11.4095 9.33336 11.6538 9.52489 11.7633L11.6097 12.9519C11.6718 12.987 11.7403 13.004 11.8071 13.004C11.9459 13.004 12.0812 12.9313 12.155 12.8025L12.7484 11.761C12.749 11.761 12.749 11.7604 12.749 11.7604C12.7496 11.7597 12.7496 11.7597 12.7496 11.7592L13.343 10.7182C13.343 10.7182 13.343 10.7182 13.3436 10.7176ZM14.7723 0.9455L16.1617 1.73774L15.9638 2.08512C15.8542 2.27696 15.9216 2.52124 16.1131 2.63049C16.1758 2.66622 16.2437 2.6832 16.3111 2.6832C16.4499 2.6832 16.5847 2.61054 16.6585 2.48109L16.8565 2.13371L18.2465 2.92598L17.4539 4.31574L13.9803 2.33495L14.7723 0.9455ZM13.0448 9.62675L12.8468 9.9744C12.6547 9.86485 12.4104 9.93162 12.3009 10.1235C12.192 10.315 12.2587 10.5593 12.4503 10.6689L12.2523 11.0162C12.0608 10.9072 11.8165 10.974 11.7069 11.1655C11.5974 11.3577 11.6647 11.602 11.8563 11.7109L11.6583 12.0585L10.2688 11.2665L10.4668 10.9191C10.5295 10.9549 10.5974 10.9713 10.6643 10.9713C10.8037 10.9713 10.9384 10.8992 11.0122 10.7698C11.1217 10.5777 11.055 10.3334 10.8628 10.2245L11.0608 9.87711C11.1235 9.91254 11.1914 9.92952 11.2588 9.92952C11.3976 9.92952 11.5324 9.85717 11.6062 9.72772C11.7157 9.53588 11.649 9.29159 11.4574 9.18235L11.6554 8.83497C11.7175 8.87039 11.7854 8.88738 11.8528 8.88738C11.9916 8.88738 12.1269 8.81472 12.2007 8.68557C12.3103 8.49373 12.2429 8.24949 12.0514 8.13994L12.2494 7.79256C12.312 7.82829 12.38 7.84527 12.4474 7.84527C12.5862 7.84527 12.7209 7.77261 12.7947 7.64346C12.9043 7.45132 12.8375 7.20734 12.6454 7.09779L12.8434 6.75041C12.906 6.78614 12.974 6.80282 13.0413 6.80282C13.1802 6.80282 13.3155 6.73047 13.3892 6.60101C13.4982 6.40918 13.4314 6.16489 13.2399 6.05565L13.4379 5.7083C13.5 5.74373 13.5685 5.76071 13.6353 5.76071C13.7741 5.76071 13.9094 5.68806 13.9832 5.5589C14.0928 5.36707 14.0254 5.12278 13.8339 5.01324L14.0319 4.66586C14.0945 4.70158 14.1625 4.71857 14.2298 4.71857C14.3687 4.71857 14.5034 4.64591 14.5772 4.51646C14.6868 4.32462 14.62 4.08064 14.4279 3.97109L14.6265 3.62371L16.0159 4.41599L15.8179 4.76337C15.6258 4.65412 15.3815 4.72089 15.272 4.91273C15.163 5.10456 15.2298 5.34885 15.4214 5.45809L15.2234 5.80574V5.80544C15.0318 5.69619 14.7875 5.76296 14.678 5.9548C14.5685 6.14663 14.6352 6.39092 14.8274 6.50047L14.6294 6.84785C14.4372 6.7383 14.193 6.80537 14.084 6.99721C13.9745 7.18904 14.0412 7.43303 14.2334 7.54257L14.0348 7.88996C13.8433 7.78071 13.599 7.84748 13.4894 8.03932C13.3799 8.23115 13.4472 8.4754 13.6388 8.58465L13.4408 8.93203C13.2493 8.82278 13.005 8.88955 12.8955 9.08139C12.7859 9.27322 12.8527 9.51751 13.0448 9.62675Z" fill="#EE6666"/>
<path d="M12.4088 16.3552L9.52323 14.2048L8.56139 13.4884L8.56079 13.4878L5.03385 10.86L5.51184 10.2187C5.64366 10.0414 5.60733 9.79104 5.42982 9.65893L3.50613 8.22554C3.42118 8.16199 3.31399 8.13504 3.20913 8.15026C3.10427 8.16578 3.00999 8.22201 2.94611 8.30723L0.0793587 12.1546C0.0160756 12.2401 -0.011442 12.3467 0.00437874 12.4516C0.0195997 12.5565 0.0758347 12.6513 0.160787 12.7146L2.08504 14.148C2.15417 14.1996 2.23792 14.2271 2.32403 14.2271C2.34278 14.2271 2.36212 14.2259 2.38143 14.223C2.48629 14.2078 2.58118 14.1515 2.64446 14.0666L3.12246 13.4252L5.6876 15.3366L6.6494 16.0536L8.57309 17.4869C8.57369 17.4869 8.57369 17.4869 8.57369 17.4869L10.4974 18.9203C10.5671 18.9725 10.6509 19 10.7364 19C10.7557 19 10.775 18.9982 10.7944 18.9959C10.8992 18.9801 10.9935 18.9239 11.0568 18.8389L12.4908 16.9146C12.6226 16.7377 12.5863 16.487 12.4088 16.3552ZM2.72004 12.6267L2.24204 13.2676L0.959211 12.3122L1.91517 11.0293L2.23559 11.2683C2.30765 11.3216 2.3914 11.3474 2.47459 11.3474C2.59644 11.3474 2.71712 11.2917 2.79558 11.1869C2.9274 11.0094 2.89107 10.7593 2.71355 10.6269L2.39313 10.3879L3.34852 9.10561L4.63139 10.0613L3.20793 11.9718L2.72004 12.6267ZM10.655 18.0405L10.334 17.8015C10.4658 17.6241 10.4295 17.3739 10.252 17.2421C10.0751 17.1097 9.82435 17.1466 9.69254 17.3235L9.37211 17.0845C9.50393 16.9076 9.4676 16.6569 9.29008 16.5251C9.11317 16.3933 8.86247 16.4296 8.73066 16.6065L8.41023 16.3675C8.54205 16.1906 8.50512 15.9399 8.3282 15.8081C8.15129 15.6763 7.90059 15.7126 7.76878 15.8901L7.44779 15.6511C7.58017 15.4737 7.54328 15.2235 7.36636 15.0911C7.18945 14.9593 6.93875 14.9962 6.80694 15.1731L6.48595 14.9341C6.61776 14.7572 6.58143 14.5065 6.40452 14.3747C6.22704 14.2429 5.97694 14.2792 5.84453 14.4561L5.5241 14.2171C5.65592 14.0402 5.61959 13.7895 5.44208 13.6577C5.26516 13.5259 5.01503 13.5622 4.88265 13.7398L4.56222 13.5008C4.69404 13.3233 4.65771 13.0731 4.4802 12.9407C4.30328 12.8089 4.05258 12.8458 3.92077 13.0228L3.60034 12.7838L4.55574 11.5009L4.87673 11.7399C4.74435 11.9174 4.78124 12.1675 4.95816 12.2999C5.03021 12.3532 5.11396 12.379 5.19655 12.379C5.319 12.379 5.43908 12.3233 5.51754 12.2179L5.83853 12.4569C5.70615 12.6338 5.74305 12.8845 5.91996 13.0163C5.99202 13.0702 6.07573 13.096 6.15892 13.096C6.28076 13.096 6.40144 13.0403 6.47991 12.9349L6.80034 13.1739C6.66852 13.3508 6.70485 13.6015 6.88177 13.7333C6.95382 13.7866 7.03757 13.8124 7.12076 13.8124C7.24261 13.8124 7.36329 13.7567 7.44175 13.6519V13.6513L7.76218 13.8903C7.63037 14.0677 7.66669 14.3179 7.84421 14.4503C7.91566 14.5036 7.99945 14.5294 8.08261 14.5294C8.20445 14.5294 8.32513 14.4737 8.4036 14.3683L8.72402 14.6073C8.59221 14.7842 8.62914 15.0349 8.80605 15.1667C8.87751 15.2206 8.9613 15.2464 9.04445 15.2464C9.16689 15.2464 9.28697 15.1907 9.36544 15.0853L9.68643 15.3243C9.55405 15.5012 9.59094 15.7519 9.76786 15.8837C9.83991 15.937 9.92366 15.9628 10.0069 15.9628C10.1287 15.9628 10.2488 15.9071 10.3273 15.8023L10.6483 16.0407C10.5165 16.2181 10.5528 16.4683 10.7297 16.6007C10.8018 16.654 10.8855 16.6798 10.9687 16.6798C11.0905 16.6798 11.2112 16.6241 11.2897 16.5187L11.6101 16.7577L10.655 18.0405Z" fill="#EE6666"/>
</svg>
