<svg width="22" height="19" viewBox="0 0 22 19" fill="none" xmlns="http://www.w3.org/2000/svg">
<path d="M4.47581 16.8596C4.93773 16.8596 5.38928 16.7226 5.77335 16.466C6.15743 16.2094 6.45678 15.8446 6.63355 15.4179C6.81032 14.9911 6.85658 14.5215 6.76646 14.0685C6.67635 13.6154 6.45391 13.1993 6.12729 12.8727C5.80066 12.5461 5.38452 12.3236 4.93148 12.2335C4.47843 12.1434 4.00884 12.1896 3.58209 12.3664C3.15533 12.5432 2.79058 12.8425 2.53396 13.2266C2.27734 13.6107 2.14037 14.0622 2.14038 14.5242C2.14109 15.1433 2.38737 15.7369 2.8252 16.1748C3.26302 16.6126 3.85664 16.8589 4.47581 16.8596ZM4.47581 12.9057C4.79592 12.9056 5.10885 13.0006 5.37501 13.1784C5.64118 13.3562 5.84863 13.609 5.97114 13.9047C6.09365 14.2005 6.12571 14.5259 6.06326 14.8399C6.00082 15.1538 5.84667 15.4422 5.62032 15.6686C5.39397 15.8949 5.10559 16.0491 4.79163 16.1115C4.47767 16.174 4.15224 16.142 3.8565 16.0195C3.56075 15.897 3.30798 15.6895 3.13013 15.4233C2.95229 15.1572 2.85736 14.8443 2.85736 14.5242C2.85784 14.0951 3.0285 13.6837 3.33192 13.3802C3.63533 13.0768 4.04672 12.9061 4.47581 12.9057Z" fill="#EE6666"/>
<path d="M16.8904 17.2075C17.1822 17.2075 17.4675 17.121 17.7101 16.9589C17.9528 16.7968 18.1419 16.5664 18.2535 16.2968C18.3652 16.0272 18.3944 15.7305 18.3375 15.4443C18.2806 15.1581 18.1401 14.8952 17.9337 14.6889C17.7274 14.4825 17.4645 14.342 17.1783 14.2851C16.8921 14.2281 16.5954 14.2574 16.3258 14.369C16.0562 14.4807 15.8258 14.6698 15.6637 14.9125C15.5016 15.1551 15.415 15.4404 15.415 15.7322C15.4155 16.1233 15.5711 16.4983 15.8477 16.7749C16.1242 17.0515 16.4993 17.2071 16.8904 17.2075ZM16.8904 14.9737C17.0404 14.9737 17.1871 15.0182 17.3118 15.1015C17.4365 15.1849 17.5337 15.3033 17.5911 15.4419C17.6485 15.5805 17.6636 15.733 17.6343 15.8801C17.6051 16.0272 17.5328 16.1624 17.4268 16.2684C17.3207 16.3745 17.1856 16.4468 17.0384 16.476C16.8913 16.5053 16.7388 16.4903 16.6002 16.4329C16.4616 16.3755 16.3432 16.2783 16.2598 16.1535C16.1765 16.0288 16.132 15.8822 16.132 15.7322C16.1323 15.5311 16.2122 15.3383 16.3544 15.1962C16.4966 15.054 16.6893 14.974 16.8904 14.9737Z" fill="#EE6666"/>
<path d="M20.434 13.6226H20.0755V10.6912C20.0749 10.1378 19.8547 9.60717 19.4634 9.21584C19.0721 8.82451 18.5415 8.60439 17.9881 8.60378H16.1321V7.16981C16.1321 7.07474 16.0943 6.98355 16.0271 6.91632C15.9598 6.84909 15.8687 6.81132 15.7736 6.81132H15.4151V5.21071L16.3309 4.60015C16.4095 4.54717 16.4639 4.46525 16.4822 4.37229C16.5005 4.27934 16.4813 4.1829 16.4288 4.10407C16.3762 4.02524 16.2946 3.97043 16.2017 3.9516C16.1088 3.93278 16.0123 3.95148 15.9332 4.00362L14.8577 4.7206C14.8086 4.75334 14.7684 4.79769 14.7405 4.84973C14.7127 4.90176 14.6981 4.95986 14.6981 5.01887V6.81132H14.3396C14.2445 6.81132 14.1534 6.84909 14.0861 6.91632C14.0189 6.98355 13.9811 7.07474 13.9811 7.16981V8.60378H13.1724L11.2306 2.13091C11.3009 2.10653 11.362 2.06084 11.4052 2.00019C11.4484 1.93953 11.4716 1.86693 11.4717 1.79245V0.985849C11.4714 0.724477 11.3674 0.473894 11.1826 0.289076C10.9978 0.104258 10.7472 0.000296509 10.4858 0H3.85377C3.5924 0.000296509 3.34181 0.104258 3.15699 0.289076C2.97218 0.473894 2.86821 0.724477 2.86792 0.985849V1.79245C2.868 1.87157 2.89425 1.94844 2.94259 2.01108C2.99092 2.07372 3.05862 2.11861 3.13513 2.13876L1.82139 7.72234L0.083073 9.80826C0.0394586 9.86061 0.0116646 9.9243 0.00294679 9.99187C-0.00577097 10.0594 0.00494862 10.1281 0.0338498 10.1898C0.062751 10.2515 0.108637 10.3037 0.166132 10.3403C0.223627 10.3768 0.290349 10.3962 0.358483 10.3962H2.15094C2.19802 10.3962 2.24463 10.387 2.28813 10.3689C2.33162 10.3509 2.37114 10.3245 2.40443 10.2912L2.81222 9.88345L3.07248 10.2739C2.34052 10.5156 1.68339 10.9423 1.16475 11.5126C0.646114 12.0828 0.283542 12.7774 0.112159 13.5289C-0.059224 14.2805 -0.0336083 15.0635 0.186525 15.8023C0.406658 16.541 0.813846 17.2104 1.36865 17.7455C1.92345 18.2807 2.60705 18.6635 3.35325 18.8569C4.09944 19.0502 4.88293 19.0476 5.62781 18.8493C6.37269 18.6509 7.05373 18.2636 7.60494 17.7247C8.15615 17.1859 8.55886 16.5138 8.77405 15.7736H13.6237C13.6356 16.6321 13.985 17.4515 14.5963 18.0544C15.2077 18.6574 16.0318 18.9954 16.8904 18.9954C17.7491 18.9954 18.5732 18.6574 19.1845 18.0544C19.7959 17.4515 20.1453 16.6321 20.1572 15.7736H20.434C20.7192 15.7736 20.9927 15.6603 21.1944 15.4586C21.3961 15.2569 21.5094 14.9834 21.5094 14.6981C21.5094 14.4129 21.3961 14.1393 21.1944 13.9376C20.9927 13.736 20.7192 13.6226 20.434 13.6226ZM17.9881 9.32076C18.3514 9.32117 18.6997 9.46569 18.9566 9.7226C19.2136 9.97952 19.3581 10.3278 19.3585 10.6912V13.5939C18.9679 13.1413 18.4602 12.8049 17.8911 12.6215C17.322 12.4381 16.7135 12.4149 16.1321 12.5543V9.32076H17.9881ZM14.6981 7.5283H15.4151V12.8178C15.1553 12.9497 14.9142 13.1156 14.6981 13.3111V7.5283ZM12.4056 15.0566L11.6545 13.6226H12.5472V15.0566H12.4056ZM2.60353 7.5283L3.86882 2.15094H4.66037V7.5283H2.60353ZM5.37735 2.15094H6.09433V7.5283H5.37735V2.15094ZM6.81132 2.15094H10.488L12.4238 8.60378H11.7406C11.7152 8.60378 11.6901 8.60463 11.6651 8.60602L11.1614 7.85063L11.3283 7.72547C11.366 7.69723 11.3977 7.66184 11.4217 7.62133C11.4457 7.58082 11.4614 7.53598 11.4681 7.48938C11.4747 7.44278 11.4722 7.39532 11.4605 7.34971C11.4488 7.30411 11.4282 7.26125 11.4 7.22359C11.3717 7.18593 11.3364 7.1542 11.2959 7.13021C11.2553 7.10622 11.2105 7.09045 11.1639 7.08379C11.1173 7.07714 11.0698 7.07972 11.0242 7.09141C10.9786 7.10309 10.9358 7.12364 10.8981 7.15189L9.82264 7.95849C9.74657 8.01554 9.69629 8.10046 9.68284 8.19459C9.6694 8.28871 9.69389 8.38432 9.75094 8.46038C9.80799 8.53644 9.89291 8.58673 9.98703 8.60017C10.0812 8.61362 10.1768 8.58912 10.2528 8.53208L10.587 8.28145L10.9662 8.85024C10.7902 8.97418 10.6465 9.13861 10.5473 9.32968C10.4481 9.52074 10.3963 9.73284 10.3962 9.94812V11.2208L8.56286 7.72068C8.53253 7.66268 8.4869 7.61409 8.43091 7.58017C8.37493 7.54626 8.31073 7.52832 8.24528 7.5283H6.81132V2.15094ZM11.7406 9.32076H12.5472V10.0377H11.1132V9.94812C11.1134 9.78179 11.1795 9.62232 11.2971 9.5047C11.4148 9.38709 11.5742 9.32094 11.7406 9.32076ZM11.1132 10.7547H12.5472V11.4717H11.1132V10.7547ZM11.1111 12.5854C11.1125 12.5727 11.1132 12.5599 11.1132 12.5472V12.1887H12.5472V12.9057H11.279L11.1111 12.5854ZM3.5849 0.985849C3.58497 0.914563 3.61332 0.846217 3.66373 0.79581C3.71414 0.745402 3.78248 0.717053 3.85377 0.716981H10.4858C10.5571 0.717053 10.6255 0.745402 10.6759 0.79581C10.7263 0.846217 10.7546 0.914563 10.7547 0.985849V1.43396H3.5849V0.985849ZM0.757304 15.0706L1.66697 14.4639C1.70665 14.438 1.7408 14.4045 1.76746 14.3654C1.79411 14.3262 1.81273 14.2821 1.82225 14.2357C1.83177 14.1893 1.832 14.1415 1.82292 14.095C1.81384 14.0485 1.79563 14.0043 1.76935 13.9648C1.74307 13.9254 1.70924 13.8916 1.66981 13.8653C1.63038 13.8391 1.58614 13.8209 1.53963 13.8118C1.49313 13.8028 1.4453 13.803 1.39889 13.8126C1.35249 13.8221 1.30843 13.8407 1.26927 13.8674L0.729701 14.2271C0.784687 13.5224 1.03834 12.8477 1.46125 12.2813L2.53224 12.4955C2.55552 12.5002 2.5792 12.5025 2.60295 12.5025C2.69197 12.5026 2.77782 12.4695 2.84378 12.4097C2.90975 12.3499 2.95112 12.2678 2.95984 12.1792C2.96857 12.0906 2.94401 12.0019 2.89097 11.9304C2.83792 11.8589 2.76017 11.8097 2.67285 11.7924L2.03891 11.6656C2.57529 11.2063 3.23065 10.908 3.92932 10.8053L4.53598 11.7152C4.58896 11.7938 4.67088 11.8481 4.76383 11.8665C4.85679 11.8848 4.95322 11.8656 5.03205 11.813C5.11089 11.7605 5.1657 11.6788 5.18452 11.586C5.20335 11.4931 5.18464 11.3966 5.1325 11.3175L4.7728 10.7779C5.47754 10.8329 6.15224 11.0866 6.71865 11.5095L6.5044 12.5805C6.49517 12.6266 6.49511 12.6742 6.50425 12.7204C6.51338 12.7665 6.53152 12.8105 6.55764 12.8496C6.58375 12.8888 6.61732 12.9225 6.65644 12.9487C6.69556 12.9749 6.73945 12.9931 6.78562 13.0023C6.83178 13.0116 6.87931 13.0116 6.9255 13.0025C6.97169 12.9934 7.01562 12.9752 7.0548 12.9491C7.09397 12.923 7.12762 12.8894 7.15382 12.8503C7.18002 12.8112 7.19826 12.7673 7.20749 12.7211L7.33426 12.0871C7.79361 12.6236 8.09189 13.2789 8.19464 13.9776L7.2847 14.5843C7.24526 14.6102 7.21134 14.6438 7.18491 14.6829C7.15847 14.7221 7.14002 14.7661 7.13064 14.8124C7.12125 14.8587 7.12111 14.9064 7.13022 14.9527C7.13933 14.9991 7.15751 15.0431 7.18372 15.0825C7.20992 15.1218 7.24364 15.1555 7.28292 15.1817C7.32221 15.208 7.36629 15.2262 7.41264 15.2353C7.45899 15.2444 7.50668 15.2443 7.55298 15.235C7.59929 15.2256 7.64329 15.2072 7.68245 15.1808L8.22202 14.8211C8.16704 15.5258 7.91336 16.2005 7.49043 16.7669L6.41944 16.5527C6.32653 16.5349 6.23033 16.5545 6.15181 16.6073C6.07329 16.66 6.01882 16.7417 6.00027 16.8345C5.98172 16.9273 6.00059 17.0236 6.05278 17.1025C6.10497 17.1814 6.18624 17.2365 6.27887 17.2558L6.91281 17.3825C6.37639 17.8419 5.72101 18.1401 5.02231 18.2429L4.41561 17.333C4.38972 17.2933 4.35623 17.2592 4.31706 17.2325C4.27789 17.2059 4.23383 17.1873 4.18742 17.1777C4.14101 17.1682 4.09317 17.168 4.04667 17.1771C4.00018 17.1862 3.95594 17.2044 3.91652 17.2306C3.8771 17.2569 3.84328 17.2908 3.81702 17.3302C3.79076 17.3696 3.77257 17.4139 3.76351 17.4604C3.75445 17.5069 3.75469 17.5547 3.76423 17.6011C3.77377 17.6475 3.79241 17.6916 3.81908 17.7307L4.17878 18.2703C3.47406 18.2153 2.79937 17.9617 2.23299 17.5388L2.44714 16.4678C2.45684 16.4214 2.45726 16.3736 2.44838 16.3271C2.4395 16.2806 2.42149 16.2363 2.3954 16.1968C2.36931 16.1573 2.33565 16.1233 2.29637 16.0969C2.25708 16.0705 2.21295 16.0521 2.16652 16.0428C2.12009 16.0335 2.07228 16.0335 2.02585 16.0428C1.97942 16.0521 1.9353 16.0705 1.89602 16.097C1.85675 16.1234 1.8231 16.1574 1.79702 16.1969C1.77095 16.2364 1.75296 16.2807 1.74409 16.3272L1.61732 16.9611C1.15814 16.4246 0.859997 15.7692 0.757304 15.0706ZM4.47602 10.0483C4.25526 10.0483 4.0348 10.0646 3.81644 10.097L3.53776 9.67925H7.31249L10.1593 15.0566H8.91991C8.99522 14.4284 8.93647 13.7913 8.74754 13.1874C8.5586 12.5836 8.24377 12.0266 7.82381 11.5534C7.40386 11.0801 6.88832 10.7012 6.31122 10.4418C5.73412 10.1824 5.10857 10.0482 4.47584 10.0483H4.47602ZM10.9705 15.0566L7.84511 9.15303C7.81463 9.09544 7.76902 9.04725 7.7132 9.01364C7.65738 8.98003 7.59346 8.96227 7.5283 8.96227H2.86792C2.82084 8.96227 2.77422 8.97154 2.73073 8.98955C2.68723 9.00757 2.64771 9.03397 2.61442 9.06726L2.00248 9.67925H1.12386L2.31885 8.24529H8.02835L11.5962 15.0566H10.9705ZM13.2641 9.32076H13.9811V14.247C13.8497 14.5029 13.7529 14.7752 13.6933 15.0566H13.2641V9.32076ZM14.397 16.2692L14.8631 15.9451C14.9411 15.8908 14.9944 15.8078 15.0112 15.7142C15.028 15.6206 15.0069 15.5242 14.9526 15.4461C14.8983 15.3681 14.8153 15.3148 14.7217 15.298C14.6281 15.2812 14.5317 15.3022 14.4536 15.3565L14.3593 15.4222C14.4059 15.0394 14.5392 14.6724 14.7492 14.349L15.3064 14.4491C15.3999 14.4655 15.496 14.4443 15.5738 14.39C15.6516 14.3357 15.7047 14.2527 15.7214 14.1594C15.7382 14.066 15.7173 13.9698 15.6632 13.8918C15.6092 13.8138 15.5265 13.7605 15.4332 13.7434L15.3215 13.7233C15.6244 13.4857 15.9773 13.32 16.3537 13.2387L16.6778 13.7047C16.7321 13.7828 16.8152 13.8361 16.9087 13.8529C17.0023 13.8697 17.0988 13.8486 17.1768 13.7943C17.2549 13.74 17.3081 13.6569 17.3249 13.5634C17.3417 13.4698 17.3207 13.3734 17.2664 13.2953L17.2007 13.201C17.5835 13.2476 17.9505 13.3809 18.2739 13.5908L18.1739 14.1481C18.1654 14.1946 18.1661 14.2422 18.1761 14.2883C18.186 14.3344 18.205 14.3781 18.2318 14.4169C18.2587 14.4557 18.293 14.4888 18.3327 14.5143C18.3724 14.5398 18.4167 14.5572 18.4631 14.5655C18.5096 14.5739 18.5572 14.573 18.6033 14.5629C18.6494 14.5528 18.693 14.5337 18.7317 14.5067C18.7704 14.4797 18.8033 14.4453 18.8287 14.4055C18.8541 14.3657 18.8714 14.3213 18.8795 14.2749L18.8996 14.1632C19.1372 14.4661 19.3029 14.8191 19.3842 15.1954L18.9182 15.5195C18.8795 15.5463 18.8466 15.5806 18.8211 15.6202C18.7957 15.6598 18.7784 15.7041 18.77 15.7504C18.7617 15.7968 18.7626 15.8443 18.7727 15.8903C18.7827 15.9363 18.8017 15.9798 18.8286 16.0185C18.8555 16.0571 18.8897 16.0901 18.9293 16.1155C18.969 16.1409 19.0132 16.1583 19.0596 16.1666C19.1059 16.1749 19.1534 16.1741 19.1994 16.164C19.2454 16.154 19.289 16.1349 19.3276 16.1081L19.4219 16.0424C19.3753 16.4251 19.242 16.7922 19.0321 17.1156L18.4747 17.0156C18.3815 16.9996 18.2857 17.0211 18.2082 17.0754C18.1307 17.1297 18.0779 17.2125 18.0612 17.3056C18.0445 17.3987 18.0652 17.4947 18.119 17.5725C18.1727 17.6504 18.2551 17.7039 18.3481 17.7213L18.4597 17.7413C18.1568 17.9789 17.8038 18.1446 17.4275 18.2259L17.1034 17.7599C17.0766 17.7212 17.0423 17.6882 17.0027 17.6628C16.9631 17.6374 16.9188 17.62 16.8725 17.6117C16.8262 17.6034 16.7786 17.6043 16.7326 17.6143C16.6866 17.6244 16.6431 17.6434 16.6044 17.6703C16.5658 17.6972 16.5328 17.7314 16.5074 17.771C16.482 17.8106 16.4646 17.8549 16.4563 17.9012C16.448 17.9476 16.4489 17.9951 16.4589 18.0411C16.469 18.0871 16.488 18.1306 16.5149 18.1693L16.5805 18.2636C16.1978 18.2171 15.8307 18.0837 15.5073 17.8738L15.6073 17.3164C15.6234 17.2232 15.6019 17.1274 15.5475 17.0499C15.4932 16.9725 15.4105 16.9196 15.3173 16.9029C15.2242 16.8862 15.1283 16.907 15.0504 16.9607C14.9725 17.0145 14.919 17.0968 14.9016 17.1898L14.8816 17.3014C14.644 16.9985 14.4783 16.6456 14.397 16.2692ZM20.434 15.0566H20.0877C20.0354 14.809 19.9542 14.5684 19.8459 14.3396H20.434C20.529 14.3396 20.6202 14.3774 20.6875 14.4446C20.7547 14.5119 20.7925 14.603 20.7925 14.6981C20.7925 14.7932 20.7547 14.8844 20.6875 14.9516C20.6202 15.0188 20.529 15.0566 20.434 15.0566Z" fill="#EE6666"/>
<path d="M17.2076 11.4717C17.3027 11.4717 17.3939 11.4339 17.4611 11.3667C17.5283 11.2995 17.5661 11.2083 17.5661 11.1132V10.3962C17.5661 10.3012 17.5283 10.21 17.4611 10.1427C17.3939 10.0755 17.3027 10.0378 17.2076 10.0378C17.1125 10.0378 17.0214 10.0755 16.9541 10.1427C16.8869 10.21 16.8491 10.3012 16.8491 10.3962V11.1132C16.8491 11.2083 16.8869 11.2995 16.9541 11.3667C17.0214 11.4339 17.1125 11.4717 17.2076 11.4717Z" fill="#EE6666"/>
<path d="M18.2831 11.4717C18.3781 11.4717 18.4693 11.4339 18.5365 11.3667C18.6038 11.2995 18.6415 11.2083 18.6415 11.1132V10.3962C18.6415 10.3012 18.6038 10.21 18.5365 10.1427C18.4693 10.0755 18.3781 10.0378 18.2831 10.0378C18.188 10.0378 18.0968 10.0755 18.0296 10.1427C17.9623 10.21 17.9246 10.3012 17.9246 10.3962V11.1132C17.9246 11.2083 17.9623 11.2995 18.0296 11.3667C18.0968 11.4339 18.188 11.4717 18.2831 11.4717Z" fill="#EE6666"/>
</svg>
