<svg width="19" height="19" viewBox="0 0 19 19" fill="none" xmlns="http://www.w3.org/2000/svg">
<path d="M15.965 0C15.0775 0 14.2374 0.386506 13.6601 1.06001H13.6604L12.5645 2.33819V3.85698L11.0323 5.38924L10.4194 4.77634L8.8871 6.30859L8.58065 6.00214L6.61505 7.96774L7.22795 8.58065L3.08876 12.7198L2.78201 14.2524L0 17.0344V17.1613C0 18.1754 0.824636 19 1.83871 19H1.9656L4.74761 16.218L6.28016 15.9112L10.4194 11.7721L11.0323 12.385L12.9979 10.4194L12.6914 10.1129L14.2237 8.58065L13.6108 7.96774L15.143 6.43548H16.6618L17.94 5.33986C18.6135 4.76257 19 3.92252 19 3.03504C19 1.36153 17.6385 0 15.965 0ZM14.5828 6.12903L14.0968 6.61505L12.385 4.90323L12.871 4.41721L14.5828 6.12903ZM8.40108 8.8871L9.5 7.78818L11.2118 9.5L10.1129 10.5989L8.40108 8.8871ZM10.2398 7.66129L11.3387 6.56237L12.4376 7.66129L11.3387 8.76021L10.2398 7.66129ZM10.4194 5.64302L10.9054 6.12903L9.80645 7.22795L9.32044 6.74194L10.4194 5.64302ZM8.58065 6.86883L9.06666 7.35484L7.96774 8.45376L7.48173 7.96774L8.58065 6.86883ZM3.3973 14.3024L3.55906 13.4924L5.5076 15.4409L4.69763 15.6027L3.3973 14.3024ZM1.71766 18.381C1.13782 18.324 0.67575 17.8619 0.618739 17.282L3.06422 14.8366L4.16313 15.9355L1.71766 18.381ZM6.12903 15.1957L3.80431 12.871L7.66129 9.01399L9.98601 11.3387L6.12903 15.1957ZM11.0323 11.5183L10.5462 11.0323L11.6452 9.93334L12.1312 10.4194L11.0323 11.5183ZM12.2581 9.67956L11.7721 9.19355L12.871 8.09463L13.357 8.58065L12.2581 9.67956ZM11.4656 5.82258L11.9516 5.33657L13.6634 7.04839L13.1774 7.5344L11.4656 5.82258ZM17.5414 4.87435L16.435 5.82258H15.143L13.1774 3.85698V2.56504L14.1257 1.45864H14.126C14.5865 0.92115 15.2567 0.612903 15.965 0.612903C17.3005 0.612903 18.3871 1.69955 18.3871 3.03504C18.3871 3.74326 18.0788 4.41347 17.5414 4.87435Z" fill="#EE6666"/>
<path d="M15.9354 1.22583C14.9213 1.22583 14.0967 2.05047 14.0967 3.06454C14.0967 4.07861 14.9213 4.90325 15.9354 4.90325C16.9495 4.90325 17.7741 4.07861 17.7741 3.06454C17.7741 2.05047 16.9495 1.22583 15.9354 1.22583ZM15.9354 4.29035C15.2593 4.29035 14.7096 3.74059 14.7096 3.06454C14.7096 2.38849 15.2593 1.83873 15.9354 1.83873C16.6114 1.83873 17.1612 2.38849 17.1612 3.06454C17.1612 3.74059 16.6114 4.29035 15.9354 4.29035Z" fill="#EE6666"/>
</svg>
