<svg width="15" height="19" viewBox="0 0 15 19" fill="none" xmlns="http://www.w3.org/2000/svg">
<path d="M4.50755 16.328C4.663 16.328 4.78902 16.202 4.78902 16.0466C4.78902 15.8911 4.663 15.7651 4.50755 15.7651C4.35209 15.7651 4.22607 15.8911 4.22607 16.0466C4.22607 16.202 4.35209 16.328 4.50755 16.328Z" fill="#EE6666"/>
<path d="M10.466 16.3281C10.6215 16.3281 10.7475 16.202 10.7475 16.0466C10.7475 15.8911 10.6215 15.7651 10.466 15.7651C10.3106 15.7651 10.1846 15.8911 10.1846 16.0466C10.1846 16.202 10.3106 16.3281 10.466 16.3281Z" fill="#EE6666"/>
<path d="M14.3109 13.0008C13.8211 12.3459 13.0353 11.8785 12.5564 11.7955L12.0072 11.7001C11.953 11.5068 11.7924 11.356 11.5859 11.3201L10.811 11.1856C10.6559 11.1586 10.4978 11.2013 10.3773 11.3027C10.3437 11.331 10.3146 11.3631 10.2894 11.3979L9.55275 11.2734C9.49468 11.1731 9.46013 11.0568 9.46013 10.9525V10.4823C9.62386 10.378 9.78279 10.2606 9.93617 10.1285C10.5749 9.57854 10.9766 8.78414 11.062 7.91774C11.5299 7.89923 11.9049 7.51273 11.9049 7.04033V6.70868C11.9049 6.44086 11.7844 6.19312 11.5817 6.02839V5.28609H11.9189C12.7141 5.28609 13.3611 4.63912 13.3611 3.84387C13.3611 3.62652 13.1843 3.44969 12.967 3.44969H11.6307L11.4087 1.83714C11.2427 0.6313 10.0976 -0.197911 8.88935 0.0411485C7.95868 0.225434 7.01487 0.225434 6.08413 0.0411485C4.88743 -0.195684 3.7324 0.619314 3.56477 1.83714L3.34282 3.44969H2.00651C1.78916 3.44969 1.61237 3.62652 1.61237 3.84387C1.61237 4.63908 2.25934 5.28609 3.05459 5.28609H3.39177V6.02839C3.18908 6.19312 3.06854 6.44086 3.06854 6.70868V7.04033C3.06854 7.51273 3.44353 7.89923 3.91152 7.91774C3.99687 8.78414 4.39858 9.57854 5.03727 10.1285C5.19065 10.2606 5.34963 10.3779 5.51331 10.4823V10.9525C5.51331 11.0568 5.47877 11.1731 5.42069 11.2734L4.68407 11.3979C4.65887 11.3631 4.62974 11.331 4.59619 11.3027C4.47566 11.2014 4.31761 11.1586 4.16246 11.1856L3.3875 11.3201C3.18106 11.356 3.02045 11.5068 2.96623 11.7001L2.41709 11.7955C1.96947 11.8731 1.17425 12.3167 0.662515 13.0008C0.229077 13.5802 0 14.269 0 14.9926V18.0815C0 18.5879 0.412026 19 0.918496 19H14.0549C14.5614 19 14.9734 18.588 14.9734 18.0815V14.9926C14.9735 14.269 14.7444 13.5802 14.3109 13.0008ZM11.5237 15.4671C11.6039 15.8228 11.7687 16.1447 12.0004 16.3981C12.248 16.6688 12.3844 17.02 12.3844 17.3868V18.4434H2.58916V17.3868C2.58916 17.0199 2.72554 16.6688 2.97314 16.3981C3.21338 16.1354 3.37496 15.8252 3.45341 15.476C3.47968 15.3592 3.58707 15.2743 3.70883 15.2743H11.2764C11.3945 15.2743 11.4985 15.3554 11.5237 15.4671ZM4.78578 14.7177V12.6416L5.10248 13.1242C5.38158 13.5497 5.85606 13.7971 6.3508 13.7971C6.63487 13.7971 6.76212 13.7301 7.48672 13.5662C8.20846 13.7295 8.33868 13.7971 8.62264 13.7971C9.11735 13.7971 9.59187 13.5496 9.87097 13.1242L10.1877 12.6416V14.7177H4.78578ZM9.40561 12.8189C9.19001 13.1475 8.78834 13.3066 8.40629 13.2148L8.05921 13.1314L9.47798 11.8253L9.9997 11.9135L9.40561 12.8189ZM11.0251 5.92467C10.8918 5.94853 10.7272 5.99358 10.566 6.07841V5.28605H11.0251V5.92467ZM2.18393 4.00629H4.46534C4.61905 4.00629 4.74366 3.88172 4.74366 3.72797C4.74366 3.57423 4.61905 3.44965 4.46534 3.44965H3.90473L4.11626 1.91295C4.23953 1.0172 5.08934 0.411427 5.97611 0.58714C6.97847 0.785564 7.99501 0.785527 8.99745 0.58714C9.88307 0.411872 10.7339 1.01598 10.8573 1.91295L11.0688 3.44965H5.7628C5.60909 3.44965 5.48448 3.57423 5.48448 3.72797C5.48448 3.88172 5.60909 4.00629 5.7628 4.00629H11.3869C11.3872 4.00629 11.3874 4.00633 11.3877 4.00633C11.3879 4.00633 11.3881 4.00629 11.3882 4.00629H12.7896C12.7131 4.41732 12.3518 4.72941 11.9189 4.72941C11.6046 4.72941 3.55368 4.72941 3.05452 4.72941C2.62171 4.72941 2.26041 4.41732 2.18393 4.00629ZM4.4076 5.28605V6.07841C4.24629 5.99354 4.08171 5.94853 3.94841 5.92467V5.28605H4.4076ZM4.45176 7.63412C4.44853 7.48278 4.32492 7.36177 4.17351 7.36177H3.94667C3.76939 7.36177 3.62519 7.21752 3.62519 7.04029V6.70864C3.62519 6.60975 3.67076 6.51883 3.74642 6.45845C3.87126 6.46932 4.13247 6.51241 4.30707 6.68519C4.5494 6.92488 4.96428 6.75351 4.96428 6.40995V5.28601H10.0093V6.40995C10.0093 6.75299 10.4239 6.92529 10.6666 6.68511C10.8411 6.51241 11.1029 6.46921 11.2271 6.45834C11.3028 6.51868 11.3484 6.60971 11.3484 6.70864V7.04029C11.3484 7.21752 11.2042 7.36177 11.0269 7.36177H10.8001C10.6487 7.36177 10.5251 7.48278 10.5218 7.63412C10.5044 8.44715 10.1586 9.20255 9.57305 9.70668C8.33356 10.774 6.64048 10.7744 5.40054 9.70668C4.81503 9.20255 4.4692 8.44715 4.45176 7.63412ZM8.90356 10.7754V10.9525C8.90356 11.1304 8.94883 11.3135 9.03144 11.4798L7.48676 12.9017L5.94211 11.4798C6.02472 11.3135 6.06996 11.1304 6.06996 10.9525V10.7754C6.9752 11.1576 7.98024 11.1652 8.90356 10.7754ZM5.49554 11.8253L6.91431 13.1314C6.81289 13.1328 6.02157 13.5104 5.5679 12.8189L4.97382 11.9135L5.49554 11.8253ZM4.22918 11.7389V14.7177H3.70883C3.63788 14.7177 3.56889 14.7267 3.50298 14.7434V11.865L4.22918 11.7389ZM0.556679 18.0815V14.9926C0.556679 14.3902 0.747421 13.8167 1.10831 13.3342C1.46608 12.8559 1.95686 12.5128 2.52845 12.3411L2.94634 12.2686V15.2372C2.93183 15.2748 2.91936 15.3135 2.91031 15.354C2.85338 15.6073 2.73634 15.8322 2.56241 16.0224C2.22074 16.396 2.03256 16.8806 2.03256 17.3868V18.4434H0.91857C0.719033 18.4434 0.556679 18.281 0.556679 18.0815ZM14.4168 18.0815C14.4168 18.281 14.2545 18.4434 14.055 18.4434H12.941V17.3868C12.941 16.8806 12.7528 16.396 12.4111 16.0224C12.2423 15.8378 12.1264 15.6098 12.0667 15.3448C12.057 15.3018 12.0435 15.2603 12.0272 15.2203V14.1678C12.0272 14.014 11.9026 13.8895 11.7489 13.8895C11.5951 13.8895 11.4705 14.014 11.4705 14.1678V14.742C11.4079 14.7264 11.3429 14.7177 11.2764 14.7177H10.7443V11.739L11.4705 11.8651V12.8703C11.4705 13.024 11.5951 13.1486 11.7489 13.1486C11.9026 13.1486 12.0272 13.024 12.0272 12.8703V12.2686L12.4451 12.3411C13.0167 12.5128 13.5074 12.8559 13.8652 13.3342C14.2261 13.8167 14.4168 14.3902 14.4168 14.9926V18.0815Z" fill="#EE6666"/>
</svg>
